<svg width="221" height="89" viewBox="0 0 221 89" fill="none" xmlns="http://www.w3.org/2000/svg">
<path d="M74.2852 47.3115V52.3828C74.0859 52.623 73.7783 52.8838 73.3623 53.165C72.9463 53.4404 72.4102 53.6777 71.7539 53.877C71.0977 54.0762 70.3037 54.1758 69.3721 54.1758C68.5459 54.1758 67.793 54.041 67.1133 53.7715C66.4336 53.4961 65.8477 53.0947 65.3555 52.5674C64.8691 52.04 64.4941 51.3955 64.2305 50.6338C63.9668 49.8662 63.835 48.9902 63.835 48.0059V47.2061C63.835 46.2217 63.9609 45.3457 64.2129 44.5781C64.4707 43.8105 64.8369 43.1631 65.3115 42.6357C65.7861 42.1084 66.3516 41.707 67.0078 41.4316C67.6641 41.1562 68.3936 41.0186 69.1963 41.0186C70.3096 41.0186 71.2236 41.2002 71.9385 41.5635C72.6533 41.9209 73.1982 42.4189 73.5732 43.0576C73.9541 43.6904 74.1885 44.417 74.2764 45.2373H71.7188C71.6543 44.8037 71.5312 44.4258 71.3496 44.1035C71.168 43.7812 70.9072 43.5293 70.5674 43.3477C70.2334 43.166 69.7998 43.0752 69.2666 43.0752C68.8271 43.0752 68.4346 43.166 68.0889 43.3477C67.749 43.5234 67.4619 43.7842 67.2275 44.1299C66.9932 44.4756 66.8145 44.9033 66.6914 45.4131C66.5684 45.9229 66.5068 46.5146 66.5068 47.1885V48.0059C66.5068 48.6738 66.5713 49.2656 66.7002 49.7812C66.8291 50.291 67.0195 50.7217 67.2715 51.0732C67.5293 51.4189 67.8457 51.6797 68.2207 51.8555C68.5957 52.0312 69.0322 52.1191 69.5303 52.1191C69.9463 52.1191 70.292 52.084 70.5674 52.0137C70.8486 51.9434 71.0742 51.8584 71.2441 51.7588C71.4199 51.6533 71.5547 51.5537 71.6484 51.46V49.1924H69.2402V47.3115H74.2852ZM78.9258 44.4902V54H76.3857V44.4902H78.9258ZM76.2275 42.0117C76.2275 41.6426 76.3564 41.3379 76.6143 41.0977C76.8721 40.8574 77.2178 40.7373 77.6514 40.7373C78.0791 40.7373 78.4219 40.8574 78.6797 41.0977C78.9434 41.3379 79.0752 41.6426 79.0752 42.0117C79.0752 42.3809 78.9434 42.6855 78.6797 42.9258C78.4219 43.166 78.0791 43.2861 77.6514 43.2861C77.2178 43.2861 76.8721 43.166 76.6143 42.9258C76.3564 42.6855 76.2275 42.3809 76.2275 42.0117ZM84.252 52.1543L86.3613 44.4902H89.0068L85.7988 54H84.1992L84.252 52.1543ZM82.8018 44.4902L84.9199 52.1631L84.9639 54H83.3555L80.1475 44.4902H82.8018ZM94.3945 54.1758C93.6562 54.1758 92.9941 54.0586 92.4082 53.8242C91.8223 53.584 91.3242 53.2529 90.9141 52.8311C90.5098 52.4092 90.1992 51.9199 89.9824 51.3633C89.7656 50.8008 89.6572 50.2031 89.6572 49.5703V49.2188C89.6572 48.498 89.7598 47.8389 89.9648 47.2412C90.1699 46.6436 90.4629 46.125 90.8438 45.6855C91.2305 45.2461 91.6992 44.9092 92.25 44.6748C92.8008 44.4346 93.4219 44.3145 94.1133 44.3145C94.7871 44.3145 95.3848 44.4258 95.9062 44.6484C96.4277 44.8711 96.8643 45.1875 97.2158 45.5977C97.5732 46.0078 97.8428 46.5 98.0244 47.0742C98.2061 47.6426 98.2969 48.2754 98.2969 48.9727V50.0273H90.7383V48.3398H95.8096V48.1465C95.8096 47.7949 95.7451 47.4814 95.6162 47.2061C95.4932 46.9248 95.3057 46.7021 95.0537 46.5381C94.8018 46.374 94.4795 46.292 94.0869 46.292C93.7529 46.292 93.4658 46.3652 93.2256 46.5117C92.9854 46.6582 92.7891 46.8633 92.6367 47.127C92.4902 47.3906 92.3789 47.7012 92.3027 48.0586C92.2324 48.4102 92.1973 48.7969 92.1973 49.2188V49.5703C92.1973 49.9512 92.25 50.3027 92.3555 50.625C92.4668 50.9473 92.6221 51.2256 92.8213 51.46C93.0264 51.6943 93.2725 51.876 93.5596 52.0049C93.8525 52.1338 94.1836 52.1982 94.5527 52.1982C95.0098 52.1982 95.4346 52.1104 95.8271 51.9346C96.2256 51.7529 96.5684 51.4805 96.8555 51.1172L98.0859 52.4531C97.8867 52.7402 97.6143 53.0156 97.2686 53.2793C96.9287 53.543 96.5186 53.7598 96.0381 53.9297C95.5576 54.0938 95.0098 54.1758 94.3945 54.1758ZM106.893 44.4902V54H104.353V44.4902H106.893ZM104.194 42.0117C104.194 41.6426 104.323 41.3379 104.581 41.0977C104.839 40.8574 105.185 40.7373 105.618 40.7373C106.046 40.7373 106.389 40.8574 106.646 41.0977C106.91 41.3379 107.042 41.6426 107.042 42.0117C107.042 42.3809 106.91 42.6855 106.646 42.9258C106.389 43.166 106.046 43.2861 105.618 43.2861C105.185 43.2861 104.839 43.166 104.581 42.9258C104.323 42.6855 104.194 42.3809 104.194 42.0117ZM113.643 44.4902V46.2832H108.105V44.4902H113.643ZM109.477 42.1436H112.008V51.1348C112.008 51.4102 112.043 51.6211 112.113 51.7676C112.189 51.9141 112.301 52.0166 112.447 52.0752C112.594 52.1279 112.778 52.1543 113.001 52.1543C113.159 52.1543 113.3 52.1484 113.423 52.1367C113.552 52.1191 113.66 52.1016 113.748 52.084L113.757 53.9473C113.54 54.0176 113.306 54.0732 113.054 54.1143C112.802 54.1553 112.523 54.1758 112.219 54.1758C111.662 54.1758 111.176 54.085 110.76 53.9033C110.35 53.7158 110.033 53.417 109.811 53.0068C109.588 52.5967 109.477 52.0576 109.477 51.3896V42.1436ZM124.699 51.8555V47.6191C124.699 47.3145 124.649 47.0537 124.55 46.8369C124.45 46.6143 124.295 46.4414 124.084 46.3184C123.879 46.1953 123.612 46.1338 123.284 46.1338C123.003 46.1338 122.76 46.1836 122.555 46.2832C122.35 46.377 122.191 46.5146 122.08 46.6963C121.969 46.8721 121.913 47.0801 121.913 47.3203H119.382C119.382 46.916 119.476 46.5322 119.663 46.1689C119.851 45.8057 120.123 45.4863 120.48 45.2109C120.838 44.9297 121.263 44.71 121.755 44.5518C122.253 44.3936 122.81 44.3145 123.425 44.3145C124.163 44.3145 124.819 44.4375 125.394 44.6836C125.968 44.9297 126.419 45.2988 126.747 45.791C127.081 46.2832 127.248 46.8984 127.248 47.6367V51.7061C127.248 52.2275 127.28 52.6553 127.345 52.9893C127.409 53.3174 127.503 53.6045 127.626 53.8506V54H125.068C124.945 53.7422 124.852 53.4199 124.787 53.0332C124.729 52.6406 124.699 52.248 124.699 51.8555ZM125.033 48.208L125.051 49.6406H123.636C123.302 49.6406 123.012 49.6787 122.766 49.7549C122.52 49.8311 122.317 49.9395 122.159 50.0801C122.001 50.2148 121.884 50.373 121.808 50.5547C121.737 50.7363 121.702 50.9355 121.702 51.1523C121.702 51.3691 121.752 51.5654 121.852 51.7412C121.951 51.9111 122.095 52.0459 122.282 52.1455C122.47 52.2393 122.689 52.2861 122.941 52.2861C123.322 52.2861 123.653 52.21 123.935 52.0576C124.216 51.9053 124.433 51.7178 124.585 51.4951C124.743 51.2725 124.825 51.0615 124.831 50.8623L125.499 51.9346C125.405 52.1748 125.276 52.4238 125.112 52.6816C124.954 52.9395 124.752 53.1826 124.506 53.4111C124.26 53.6338 123.964 53.8184 123.618 53.9648C123.272 54.1055 122.862 54.1758 122.388 54.1758C121.784 54.1758 121.236 54.0557 120.744 53.8154C120.258 53.5693 119.871 53.2324 119.584 52.8047C119.303 52.3711 119.162 51.8789 119.162 51.3281C119.162 50.8301 119.256 50.3877 119.443 50.001C119.631 49.6143 119.906 49.2891 120.27 49.0254C120.639 48.7559 121.099 48.5537 121.649 48.4189C122.2 48.2783 122.839 48.208 123.565 48.208H125.033ZM138.34 44.4902V46.2832H132.803V44.4902H138.34ZM134.174 42.1436H136.705V51.1348C136.705 51.4102 136.74 51.6211 136.811 51.7676C136.887 51.9141 136.998 52.0166 137.145 52.0752C137.291 52.1279 137.476 52.1543 137.698 52.1543C137.856 52.1543 137.997 52.1484 138.12 52.1367C138.249 52.1191 138.357 52.1016 138.445 52.084L138.454 53.9473C138.237 54.0176 138.003 54.0732 137.751 54.1143C137.499 54.1553 137.221 54.1758 136.916 54.1758C136.359 54.1758 135.873 54.085 135.457 53.9033C135.047 53.7158 134.73 53.417 134.508 53.0068C134.285 52.5967 134.174 52.0576 134.174 51.3896V42.1436ZM142.312 46.5645V54H139.781V44.4902H142.163L142.312 46.5645ZM145.178 44.4287L145.134 46.7754C145.011 46.7578 144.861 46.7432 144.686 46.7314C144.516 46.7139 144.36 46.7051 144.22 46.7051C143.862 46.7051 143.552 46.752 143.288 46.8457C143.03 46.9336 142.813 47.0654 142.638 47.2412C142.468 47.417 142.339 47.6309 142.251 47.8828C142.169 48.1348 142.122 48.4219 142.11 48.7441L141.601 48.5859C141.601 47.9707 141.662 47.4053 141.785 46.8896C141.908 46.3682 142.087 45.9141 142.321 45.5273C142.562 45.1406 142.854 44.8418 143.2 44.6309C143.546 44.4199 143.941 44.3145 144.387 44.3145C144.527 44.3145 144.671 44.3262 144.817 44.3496C144.964 44.3672 145.084 44.3936 145.178 44.4287ZM149.353 52.9277L151.875 44.4902H154.591L150.768 55.4326C150.686 55.6729 150.574 55.9307 150.434 56.2061C150.299 56.4814 150.114 56.7422 149.88 56.9883C149.651 57.2402 149.361 57.4453 149.01 57.6035C148.664 57.7617 148.239 57.8408 147.735 57.8408C147.495 57.8408 147.299 57.8262 147.146 57.7969C146.994 57.7676 146.812 57.7266 146.602 57.6738V55.8193C146.666 55.8193 146.733 55.8193 146.804 55.8193C146.874 55.8252 146.941 55.8281 147.006 55.8281C147.34 55.8281 147.612 55.79 147.823 55.7139C148.034 55.6377 148.204 55.5205 148.333 55.3623C148.462 55.21 148.564 55.0107 148.641 54.7646L149.353 52.9277ZM148.298 44.4902L150.363 51.3809L150.724 54.0615L149.001 54.2461L145.582 44.4902H148.298Z" fill="#FF6680"/>
<path d="M206.323 22.9553C206.031 22.7724 205.74 22.5599 205.397 22.4651C203.49 21.8986 202.03 21.0138 200.572 20.0697C199.309 19.218 197.649 18.5668 196.087 17.8877C194.379 17.1469 192.571 16.5228 190.813 15.87C189.152 15.2484 187.442 14.6557 185.78 14.0638C185.194 13.8462 184.607 13.6582 184.021 13.4406C183.142 13.129 182.262 12.8174 181.334 12.5049C180.161 12.0993 178.937 11.8114 177.763 11.4355C177.177 11.2475 176.54 11.0883 176.003 10.8715C173.562 9.88085 170.769 9.32866 168.029 8.59957C167.928 8.74602 167.827 8.89248 167.727 9.00931C167.677 9.06772 167.626 9.12616 167.576 9.2142C167.281 9.2091 166.986 9.20397 166.691 9.16925C164.78 8.81017 162.819 8.47987 161.009 8.00397C160.127 7.78126 159.244 7.70672 158.41 7.57375C157.528 7.43993 156.643 7.39501 155.81 7.23241C155.565 7.19853 155.37 7.13587 155.125 7.07236C154.391 6.88183 153.608 6.66079 152.824 6.52867C152.186 6.42873 151.548 6.35845 150.859 6.40581C150.465 6.42865 150.025 6.33211 149.633 6.23641C147.479 5.72493 145.071 5.65366 142.969 4.96524C140.805 4.98711 138.997 4.33341 136.987 4.00226C135.565 3.77021 134.092 3.65583 132.621 3.45255C132.081 3.38394 131.49 3.46265 130.899 3.54134C129.519 3.69534 128.19 3.79091 126.815 3.67822C126.471 3.70191 126.176 3.69679 125.831 3.72048C124.599 3.87702 123.471 3.70933 122.546 3.18946C122.498 3.15898 122.498 3.15899 122.449 3.12851C122.109 2.91514 121.669 2.75933 121.279 2.57474C120.466 4.0427 119.379 4.34997 117.027 3.89435C115.606 3.63266 114.186 3.3117 112.712 3.25658C111.337 3.17353 109.909 3.26741 108.624 3.63052C108.179 3.77103 107.735 3.88189 107.34 3.99361C107.046 3.92925 106.751 3.89453 106.605 3.80309C105.634 3.10458 104.455 3.05455 103.268 3.47862C102.279 3.78757 101.342 3.94924 100.212 3.92969C99.5725 3.91865 98.9299 4.11503 98.2899 4.16324C97.9453 4.18693 97.5542 4.0616 97.2598 4.02687C97.0203 3.66705 97.5123 3.6459 97.6624 3.50029C97.9625 3.20908 97.9202 2.82303 97.5285 2.72734C96.8927 2.53851 96.2547 2.46819 95.6602 2.72468C95.5117 2.78139 95.508 2.98883 95.4056 3.22418C94.9135 3.24531 94.421 3.29605 93.9289 3.31718C92.698 3.41446 91.4185 3.48129 90.1876 3.57858C89.5523 3.36011 88.7648 3.40578 88.4155 3.69614C87.3159 4.71454 85.4957 4.77199 83.8726 4.80321C82.1513 4.83274 80.7159 5.37109 79.0918 5.46157C78.9444 5.45902 78.7467 5.51486 78.6474 5.57242C77.7532 6.09049 76.6672 6.33849 75.5335 6.49673C74.3502 6.68376 73.1188 6.81065 71.934 7.08657C71.9251 7.5903 71.866 8.15247 70.8286 8.43094C70.3841 8.54182 69.9878 8.7128 69.4497 8.5553C68.9608 8.39865 68.4682 8.44942 68.0708 8.67967C67.7728 8.85236 67.3764 9.02334 67.6667 9.29511C67.8115 9.44582 68.2032 9.54152 68.4975 9.57625C68.8902 9.61268 69.3337 9.56104 69.7274 9.53821C70.2111 9.99117 70.8919 10.4179 69.649 11.1967C72.8052 10.6584 75.2795 9.75274 78.1842 9.5362C78.5779 9.51336 78.9716 9.49054 79.414 9.49819C79.0182 9.63955 78.8692 9.72589 78.7207 9.78261C78.6715 9.78176 78.6715 9.78175 78.6218 9.81053C75.0714 10.4012 71.9037 11.5914 68.449 12.3319C67.8565 12.4699 67.3598 12.7577 66.7663 12.9549C66.1232 13.1809 65.4805 13.3773 64.7893 13.5432C63.8015 13.7929 62.8148 13.9833 62.1649 14.5945C61.7157 14.9721 61.0239 15.1676 60.2422 14.8873C60.1444 14.856 59.8981 14.8814 59.7496 14.9381C59.5515 15.0236 59.3528 15.1387 59.3507 15.2572C59.3486 15.3757 59.5928 15.4689 59.8354 15.6509C59.5342 16.0014 59.0391 16.2003 58.3514 16.1588C56.3383 16.0054 54.7058 16.57 53.0253 17.0745C51.9873 17.3826 51.0466 17.7516 50.0087 18.0597C49.514 18.229 48.8212 18.4838 48.4296 18.3881C47.4005 18.1925 46.6083 18.5048 45.7215 18.6081C45.6723 18.6072 45.6227 18.636 45.5735 18.6351C45.0815 18.6563 44.4943 18.4979 44.0043 18.4005C43.9593 18.1626 43.9144 17.9247 43.8694 17.6868C43.279 17.7063 42.6882 17.7553 42.0487 17.7739C41.7951 18.2141 41.2502 18.4419 40.5103 18.5773C37.5006 19.1773 35.0707 20.3506 32.5927 21.4637C32.4934 21.5212 32.4421 21.6389 32.3412 21.7854C32.5342 21.9962 32.7261 22.2663 32.9185 22.5067C32.0233 23.084 31.6432 22.3365 30.8086 22.2628C30.4614 22.4346 30.0159 22.6048 29.6185 22.835C29.1213 23.1524 28.624 23.4699 27.8836 23.6349C27.4396 23.7162 26.9936 23.9159 26.6945 24.1479C25.6969 24.9606 24.3107 25.4998 22.7791 25.9179C22.4278 26.3268 22.0272 26.7348 21.5755 27.2605C20.9339 27.3976 20.0946 27.5906 19.2549 27.8132C18.5139 28.0079 17.9665 28.3838 18.1547 28.8613C18.4324 29.8442 17.5879 30.3334 16.401 30.7279C15.956 30.8684 15.511 31.0089 15.0666 31.1198C14.1191 31.874 13.1225 32.6275 12.1248 33.4401C12.3685 33.5629 12.6608 33.7162 12.9531 33.8694C12.8475 34.2826 12.3047 34.3917 11.7619 34.5009C11.7023 35.0927 11.3494 35.5905 10.8506 35.9968C10.3517 36.4032 9.65733 36.7468 8.96398 37.0312C9.09421 38.0116 8.68637 38.8345 7.64059 39.587C7.09261 39.9925 6.73967 40.4903 6.1394 41.0727C5.37229 39.9628 6.90801 39.3076 7.06957 38.5101C6.63294 38.1765 6.14195 38.1384 5.74403 38.3983C5.44546 38.6006 5.29226 38.924 5.04232 39.1568C4.49173 39.7105 4.03891 40.2954 3.3419 40.7873C2.49639 41.3358 2.33902 41.8963 2.8682 42.5575C2.96442 42.6777 3.01043 42.8564 3.0575 42.9757C2.00389 44.1728 1.686 45.4714 1.56524 46.7438C1.3326 48.785 1.39487 50.8312 1.35935 52.8461C1.35726 52.9647 1.3557 53.0536 1.35361 53.1721C1.27678 54.7417 2.08625 56.2377 2.64944 57.7591C2.9313 58.5049 3.31198 59.2229 3.64351 59.94C5.20704 63.2867 8.25349 66.1848 11.9436 68.8273C13.0119 69.5868 14.1293 70.3471 15.3461 71.0499C16.5629 71.7526 16.6126 71.7238 18.4783 71.8747C18.8182 72.1177 19.306 72.3336 19.5957 72.635C19.9827 72.9974 20.3717 73.2412 21.1074 73.3428C21.8923 73.4453 22.3279 73.8382 22.7138 74.2598C22.3656 74.4909 22.6584 74.6145 22.9517 74.7085C23.2451 74.8025 23.54 74.8076 23.883 74.8728C23.4929 74.6882 23.1034 74.474 22.7624 74.2903C23.5991 74.2455 24.0357 74.5791 24.4718 74.9423C25.3048 75.1049 25.3529 75.165 24.8054 75.5409C25.242 75.8744 25.7785 76.1208 26.3647 76.3384C26.5111 76.4003 26.6089 76.4316 26.7553 76.4934C27.3415 76.711 27.9773 76.8998 28.5635 77.1175C29.1005 77.3342 29.637 77.5806 30.2242 77.739C30.8601 77.9278 31.5932 78.1776 32.2808 78.2191C33.4102 78.2979 34.3405 78.5215 35.2179 78.9516C36.1931 79.4131 37.2185 79.8161 38.5456 79.8391C39.0371 79.8476 39.6228 80.0948 40.062 80.2802C40.5499 80.4962 40.9881 80.7409 41.5727 81.0474C42.163 81.0279 42.8517 81.0102 43.19 81.3421C43.9644 82.0372 45.0928 82.1753 46.2714 82.2549C46.0764 82.1626 45.8813 82.0703 45.9347 81.8341C46.0309 81.9544 46.1266 82.1042 46.2719 82.2253C47.3983 82.4819 48.6245 82.6513 49.6499 83.0543C50.7244 83.4582 52.1059 83.1857 53.1287 83.7369C53.2751 83.7987 53.6683 83.8055 53.8168 83.7488C54.7565 83.439 55.2433 83.7142 55.8253 84.1688C56.2614 84.532 56.8036 84.4525 57.5466 84.1393C58.3885 83.7982 58.8319 83.7466 59.5143 84.0844C59.953 84.2995 60.2427 84.6009 60.6793 84.9345C61.415 85.0361 62.1999 85.1386 63.0339 85.2419C63.3775 85.2775 63.8177 85.4037 63.9662 85.347C65.0559 84.8916 65.9825 85.3225 66.9619 85.547C67.9905 85.7722 69.0713 85.8206 70.1558 85.6615C72.3603 86.1145 74.5721 86.1528 76.8347 86.103C77.8151 86.2681 78.749 86.2843 79.6866 86.093C81.2087 86.2082 82.7303 86.3531 84.253 86.4387C84.6949 86.4759 85.3359 86.3685 85.5848 86.195C86.1338 85.7302 86.9213 85.6845 87.7569 85.699C88.4942 85.7117 89.1813 85.7829 89.8197 85.8236C91.002 85.6958 92.1879 85.3606 93.4606 85.679C96.6608 85.4379 99.9027 85.6125 103.104 85.2825C104.385 85.1565 105.761 85.1803 107.04 85.1431C107.434 85.1203 107.578 85.3006 107.765 85.867C108.946 85.7985 110.177 85.7309 111.456 85.6641L111.171 85.1256C113.641 84.4273 116.294 84.5621 119.343 84.5259C117.762 84.9728 116.384 85.0379 115.053 85.252C116.523 85.5145 117.952 85.3021 119.429 85.2387C120.56 85.199 121.694 85.0111 122.876 84.9426C126.765 84.6245 130.559 84.1566 134.355 83.5998C135.982 83.3611 137.607 83.2114 139.233 83.032C143.961 82.5506 148.598 81.7119 153.136 80.8419C155.751 80.3536 158.365 79.8652 160.931 79.3464C162.165 79.101 163.351 78.7362 164.586 78.4315C169.575 77.095 174.516 75.728 179.313 74.1511C183.961 72.6309 188.271 70.8084 192.435 68.8649C192.683 68.7506 192.834 68.5754 193.034 68.401C193.624 68.3816 193.875 68.0599 194.027 67.8254C194.231 67.4139 195.115 67.4885 195.266 67.254C195.569 66.8146 195.963 66.7918 196.601 66.8325C197.19 66.8723 197.393 66.5201 197.643 66.3169C198.039 66.146 198.582 66.0368 198.782 65.8328C200.082 64.64 202.061 63.9036 203.798 62.9851C208.016 60.7757 212.43 58.6586 216.113 56.114C216.81 55.6222 217.458 55.0999 218.155 54.608C219.55 53.5651 219.866 52.3849 219.496 51.0744C219.358 50.5385 219.023 49.9992 218.787 49.4615C218.549 48.9832 218.213 48.5328 218.272 48.0003C218.328 47.6159 218.04 47.196 217.702 46.8641C216.882 45.9311 216.507 44.8872 215.243 44.0651C214.757 43.7603 214.765 43.3158 214.968 42.934C215.07 42.7283 215.172 42.5522 215.322 42.377C216.324 41.3272 216.395 40.0836 217.005 38.9678C217.666 37.7343 216.999 36.5076 216.529 35.2842C215.728 33.2845 214.386 31.3643 213.19 29.4467C212.807 28.8769 212.08 28.3011 212.879 27.6036C213.029 27.458 212.887 27.1295 212.744 26.8899C212.362 26.2312 211.732 25.7164 210.805 25.3151C210.756 25.2846 210.707 25.2541 210.659 25.2236C209 24.4836 207.586 23.8071 206.323 22.9553ZM69.9659 85.2728C70.1129 85.305 70.2598 85.3372 70.1092 85.5125C70.1097 85.4828 70.1097 85.4828 69.9659 85.2728ZM80.2806 85.8661C80.0834 85.8924 79.8863 85.9186 79.5945 85.7357C79.7425 85.7086 79.9402 85.6528 80.2806 85.8661ZM79.3493 85.7018C79.0544 85.6967 78.7087 85.7797 78.5189 85.3911C78.9101 85.5164 79.1542 85.6095 79.3493 85.7018ZM76.7882 85.954C76.397 85.8286 75.9567 85.7025 75.1745 85.4518C75.963 85.3469 76.3568 85.324 76.7019 85.2707C76.6977 85.5078 76.7427 85.7457 76.7882 85.954ZM100.588 83.016C99.9936 83.2429 99.4017 83.3512 98.62 83.0709C99.3154 82.668 99.9508 82.8865 100.588 83.016ZM190.143 17.6072C190.341 17.5513 190.588 17.4666 191.033 17.3261C191.032 17.3558 191.032 17.3558 190.983 17.3549C190.833 17.5301 190.782 17.5885 190.733 17.5877L190.684 17.5868C190.536 17.6139 190.339 17.6106 190.143 17.6072ZM81.1432 9.02418C81.3414 8.93869 81.5401 8.82359 81.7869 8.76858C81.7869 8.76858 81.7869 8.76857 82.0787 8.95145C81.8319 9.00647 81.5845 9.09109 81.1432 9.02418ZM84.0034 8.54012C84.2006 8.51389 84.4463 8.51813 85.0372 8.46906C84.5431 8.60872 84.2963 8.66375 84.0034 8.54012ZM132.08 9.01553C132.03 9.07394 131.98 9.16199 131.879 9.27882C131.683 9.24579 131.488 9.18312 131.291 9.15009C131.291 9.15009 131.291 9.1501 131.443 8.94524C131.688 8.94948 131.884 8.9825 132.08 9.01553ZM113.247 9.13456C112.705 9.21411 112.213 9.2649 111.769 9.31651C112.167 9.08626 112.42 8.67565 113.247 9.13456ZM111.72 9.31566C111.523 9.31226 111.278 9.27836 110.741 9.09123C110.741 9.09123 110.741 9.09126 110.792 8.97358C110.988 8.97698 111.235 8.95159 111.381 9.0134C111.528 9.07521 111.624 9.19544 111.72 9.31566ZM100.901 6.66848C100.36 6.68877 99.9182 6.62186 99.9255 6.20702C100.673 5.62715 101.604 5.82108 102.536 5.95575C102.136 6.30452 101.688 6.65245 100.901 6.66848ZM128.679 6.73372C130.112 6.31389 130.113 6.28426 130.743 6.76941C130.104 6.78799 129.367 6.74561 128.679 6.73372ZM126.028 6.48043C125.831 6.50666 125.635 6.50326 125.438 6.49986C124.552 6.54383 123.716 6.55903 122.831 6.54373C122.438 6.53694 121.997 6.47 121.604 6.46321C120.916 6.45131 120.576 6.20834 120.286 5.90693C122.009 5.78851 123.626 6.11284 125.244 6.37793C125.489 6.41181 125.734 6.4457 126.028 6.48043ZM117.524 6.39268C118.127 5.6621 119.206 5.82897 120.237 5.90608C119.634 6.60703 118.555 6.49942 117.524 6.39268ZM117.475 6.39183C114.575 6.31207 111.718 6.648 108.822 6.36082C108.429 6.32439 107.985 6.40565 107.592 6.42848C106.46 6.49783 104.055 6.24877 102.635 5.92782C105.046 5.79167 107.505 5.77489 109.963 5.78774C111.93 5.7921 113.941 6.03436 115.864 5.71192C116.751 5.60869 117.287 5.91434 117.475 6.39183ZM85.9439 7.23986C85.7928 7.44473 85.1031 7.52174 84.6173 7.1873C85.1627 6.92996 85.753 6.91052 85.9439 7.23986ZM107.285 4.28908C108.272 4.06902 109.254 4.14531 110.185 4.36887C111.262 4.62461 112.243 4.73047 113.282 4.39274C113.579 4.27931 114.169 4.25989 114.462 4.35388C115.488 4.7273 116.572 4.59782 117.605 4.61567C119.079 4.64116 120.554 4.63702 122.029 4.66251C122.373 4.66846 122.864 4.67696 122.906 5.12228C121.824 5.10358 120.742 5.11451 119.71 5.09667C118.236 5.07118 116.713 4.98558 115.238 4.98972C112.189 5.02594 109.139 5.1214 106.041 5.15677C103.385 5.19978 100.729 5.24279 98.1226 5.28665C97.7294 5.27986 97.3356 5.3027 96.9926 5.23749C96.7474 5.20361 96.5523 5.11131 96.3583 4.95975C96.4566 4.96145 96.6046 4.93438 96.7029 4.93608C99.6557 4.77964 102.565 4.32604 105.561 4.4964C106.151 4.47696 106.742 4.39825 107.285 4.28908ZM90.1876 3.57858C90.1876 3.57858 90.1876 3.57855 90.38 3.819C89.9863 3.84184 89.9879 3.75296 90.1876 3.57858ZM91.6564 3.93C92.789 3.83102 93.9273 3.40608 95.4919 3.90737C95.541 3.90822 95.5405 3.93784 95.5896 3.93869C95.5405 3.93784 95.5405 3.93784 95.5405 3.93784C93.9681 3.88102 92.8309 4.24671 91.6564 3.93ZM89.7651 5.23111C90.5526 5.18545 91.4363 5.26001 92.1767 5.09497C93.5091 4.8216 94.8858 4.81575 96.2611 4.89881C93.9886 5.5116 91.531 5.46911 89.167 5.69501C89.0195 5.69246 88.825 5.57052 88.8297 5.30384C89.1251 5.27931 89.4697 5.25565 89.7651 5.23111ZM84.6418 5.79461C85.3854 5.45179 86.1713 5.49503 87.0048 5.628C85.7185 6.08 85.7185 6.07999 84.6418 5.79461ZM90.6787 6.40288C91.9582 6.33608 92.9423 6.29379 93.9755 6.25237C91.7548 6.71786 91.7548 6.71788 90.6787 6.40288ZM76.7749 8.593C77.4662 8.42711 78.157 8.29086 78.8482 8.12497C78.8482 8.12497 78.8482 8.12495 78.9941 8.21639C78.7912 8.56857 78.203 8.46949 77.8077 8.58122C77.462 8.66416 77.1169 8.71746 76.7713 8.8004C76.6725 8.82833 76.5245 8.85544 76.4262 8.85374C76.0319 8.9062 75.6868 8.95951 75.2926 9.01197C75.7872 8.84269 76.2813 8.70303 76.7749 8.593ZM72.4203 10.1776C72.1746 10.1733 71.8331 10.0192 71.6877 9.89813C71.5905 9.83717 71.7421 9.60269 71.842 9.51549C72.4376 9.19975 73.0781 9.12189 73.7605 9.45972C73.5079 9.84068 73.1581 10.1607 72.4203 10.1776ZM77.7032 11.7213C76.7154 11.9709 75.8234 12.3705 74.6918 12.4102C75.6848 11.8642 76.1292 11.7533 77.7032 11.7213ZM64.6178 14.9037C65.6557 14.5956 66.6937 14.2875 67.7306 14.0386C68.8166 13.7907 69.7113 13.2429 70.8888 13.3819C68.6111 14.291 66.2863 15.0807 63.8638 15.8391C63.2212 16.0355 62.6334 15.9068 62.0462 15.7484C62.887 15.4665 63.7278 15.1847 64.6178 14.9037ZM52.1782 17.7119C52.5249 17.5697 52.7722 17.4851 53.0195 17.4004C53.0195 17.4004 53.0195 17.4004 53.213 17.5816C53.064 17.6679 52.9144 17.7839 52.7168 17.8398C52.6671 17.8686 52.5207 17.8067 52.1782 17.7119ZM61.8977 15.8051C61.3429 16.5958 60.4974 17.1444 59.0673 17.3864C57.2921 17.6817 55.7579 18.2481 54.3686 18.965C53.5743 19.3959 52.6849 19.6473 51.1628 19.5321C51.8572 19.1884 52.2545 18.9581 52.7001 18.788C55.7658 17.8036 58.832 16.7895 61.8977 15.8051ZM51.1366 18.2274C49.6945 19.151 48.8526 19.4921 47.0774 19.7875C46.9294 19.8145 46.7814 19.8416 46.6335 19.8687C46.7328 19.8112 46.8322 19.7536 46.932 19.6664C48.0745 19.0044 49.3133 18.4627 51.1366 18.2274ZM42.9219 18.4411C43.3162 18.3886 43.6116 18.3641 43.8579 18.3387C43.6592 18.4539 43.5086 18.6291 42.9219 18.4411ZM40.0549 19.3104C40.4005 19.2275 40.6479 19.1428 40.8947 19.0878C40.8947 19.0878 40.8947 19.0878 41.0385 19.2977C40.8894 19.3841 40.6913 19.4696 40.445 19.495C40.3953 19.5238 40.2499 19.4027 40.0549 19.3104ZM45.2122 19.607C45.653 19.7036 46.0938 19.8001 46.5346 19.8967C45.7362 20.5646 44.4556 20.6906 43.1196 21.1714C43.2263 20.699 43.1824 20.4019 43.3345 20.1377C43.5902 19.579 44.2323 19.4122 45.2122 19.607ZM41.2686 20.1909C41.5128 20.2841 41.7083 20.3467 41.8056 20.4077C41.9028 20.4687 41.9504 20.5584 42.0947 20.7387C41.4987 21.0841 40.9036 21.3702 39.7726 21.3803C40.2202 21.0917 40.4691 20.9181 40.7185 20.7149C40.9182 20.5406 41.0688 20.3653 41.2686 20.1909ZM35.3468 21.4224C36.1928 20.8442 37.2271 20.7435 38.3095 20.7029C37.567 20.9865 36.8737 21.2709 36.083 21.4944C35.9345 21.5511 35.6904 21.4579 35.3468 21.4224ZM42.9999 22.3846C44.0891 21.9588 45.1793 21.4738 46.3161 21.1377C46.8599 20.9693 47.3556 20.7408 47.9004 20.5131C48.4448 20.315 49.0383 20.1178 49.7755 20.1305C49.6741 20.3066 49.6229 20.4243 49.524 20.4522C49.1282 20.5936 48.7324 20.7349 48.3365 20.8763C46.8024 21.4426 45.2191 22.008 43.6849 22.5743C43.3879 22.6877 43.0438 22.6818 42.9999 22.3846ZM35.5586 23.3526C35.3683 22.9937 35.9173 22.5289 36.4078 22.5967C36.5061 22.5984 36.7001 22.7499 36.699 22.8092C36.5474 23.0437 36.3963 23.2486 36.196 23.4526C36.0972 23.4805 35.7547 23.3857 35.5586 23.3526ZM38.2703 22.9253C38.1208 23.0412 38.0204 23.1581 37.8714 23.2444C37.8217 23.2732 37.6267 23.1809 37.4311 23.1183C37.5801 23.0319 37.7297 22.9159 38.2703 22.9253ZM41.3126 23.2743C40.6187 23.5883 40.2161 24.1149 38.8403 24.0615C39.7334 23.6027 40.3781 23.2877 41.3126 23.2743ZM33.6799 23.9426C33.6799 23.9426 33.6799 23.9426 33.7771 24.0036C33.4796 24.1466 33.1821 24.2897 32.8354 24.4319L33.6799 23.9426ZM37.6 24.6921C37.3025 24.8351 37.0536 25.0087 36.5616 25.0298C36.8105 24.8563 37.108 24.7132 37.6 24.6921ZM32.0276 25.6332C31.432 25.9489 30.9854 26.1783 30.5886 26.3789C30.7428 25.9963 30.9938 25.7042 32.0276 25.6332ZM27.1208 27.8603C27.0204 27.9771 26.9691 28.0948 26.6251 28.0888C26.7736 28.0321 26.9717 27.9466 27.1208 27.8603ZM22.9005 30.1882C22.3965 30.8908 21.4082 31.1701 20.4634 31.7762C20.923 30.8061 20.923 30.8061 22.9005 30.1882ZM32.3476 74.4263C32.8402 74.3756 33.4352 74.0895 33.67 74.716C33.1801 74.6186 32.7393 74.522 32.3476 74.4263ZM38.7107 76.048C38.8572 76.1098 39.0527 76.1725 38.9508 76.3782C38.7552 76.3155 38.6093 76.2241 38.7107 76.048ZM28.1389 76.1023C28.7784 76.0838 29.0194 76.3547 29.0634 76.6519C29.0618 76.7408 28.7151 76.883 28.5169 76.9685C28.1279 76.7246 27.788 76.4816 28.1389 76.1023ZM43.9528 77.1167C44.1484 77.1794 44.3434 77.2717 44.4893 77.3631C44.5379 77.3936 44.3392 77.5087 44.2394 77.5959C44.0438 77.5333 43.7985 77.4994 43.603 77.4367C43.603 77.4367 43.603 77.4367 43.5089 77.198C43.6574 77.1413 43.855 77.0854 43.9528 77.1167ZM58.2963 77.8686C58.5923 77.8144 58.8882 77.7602 59.1842 77.7061C59.2292 77.944 59.2742 78.1819 59.3191 78.4198C58.9782 78.236 58.6373 78.0523 58.2963 77.8686ZM57.4048 78.2385C57.6004 78.3011 57.7949 78.4231 58.0391 78.5162C57.7447 78.4815 57.4989 78.4772 57.4048 78.2385ZM58.9191 78.7982C58.6739 78.7643 58.4302 78.6415 58.2352 78.5492C58.6289 78.5264 59.0226 78.5036 59.3672 78.4799C59.3155 78.6272 59.4096 78.8659 58.9191 78.7982ZM49.6231 78.9932C49.4767 78.9313 49.4302 78.7824 49.2853 78.6316C51.0558 78.603 52.4765 78.8943 54.2345 79.5768C51.7764 79.5639 50.8932 79.4597 49.6231 78.9932ZM75.3814 79.2902C75.9221 79.2996 76.5119 79.3098 77.0521 79.3488C77.1504 79.3505 77.3449 79.4724 77.3433 79.5613C77.3423 79.6206 77.2419 79.7374 77.0939 79.7644C76.4513 79.9608 75.8139 79.8609 75.2774 79.6145C75.2769 79.6441 75.2769 79.6441 75.3814 79.2902ZM56.9321 79.9494C58.4088 79.8564 59.8332 79.9403 61.1524 80.4077C60.2656 80.5109 59.4274 80.6447 58.6389 80.7496C58.0538 80.4727 57.4681 80.2255 56.9321 79.9494ZM61.2994 80.4399C62.0393 80.3045 62.7781 80.2283 63.6116 80.3613C65.0825 80.5942 66.5555 80.7086 68.0275 80.8823C68.4688 80.9492 68.9091 81.0753 69.3499 81.1719C67.7702 81.5299 66.0614 80.8483 64.4796 81.3248C63.4521 81.0403 62.3755 80.7549 61.2994 80.4399ZM136.388 82.6568C136.043 82.7101 135.697 82.793 135.352 82.8464C135.056 82.8709 134.712 82.8946 134.716 82.6279C134.717 82.5686 135.064 82.4561 135.26 82.4595C135.556 82.4349 135.948 82.4714 136.388 82.6568ZM123.133 81.5088C123.133 81.5088 122.146 81.6992 122.098 81.6095C122.098 81.6095 123.134 81.4199 123.133 81.5088ZM140.397 78.3394C138.081 78.655 135.716 78.9402 133.542 79.4954C133.345 79.5513 133.05 79.5462 132.854 79.4835C132.659 79.4208 132.612 79.2718 132.37 79.0898C135.724 78.4661 139.028 77.9304 142.475 77.6343C141.383 78.2082 141.383 78.2082 140.397 78.3394ZM125.262 77.8702L126.1 77.7365L126.148 77.8263C126.148 77.8263 125.309 77.9896 125.262 77.8702ZM135.86 73.5481C134.133 73.874 132.603 74.2329 130.977 74.4122C128.908 74.6432 126.743 74.754 124.627 74.8656C124.479 74.8631 124.287 74.593 124.093 74.4711C124.291 74.3856 124.491 74.2112 124.637 74.2433C125.619 74.3492 126.601 74.4255 127.491 74.1148C129.519 73.4682 131.689 73.0611 134.048 73.1019C134.442 73.1087 134.838 72.9673 135.231 72.9445C135.379 72.9174 135.526 72.9792 135.673 73.0114C135.768 73.1613 135.815 73.2806 135.86 73.5481ZM152.332 70.6614C148.824 71.6678 145.029 72.195 141.329 72.872C140.096 73.0879 139.408 73.1056 137.789 72.8998C138.535 72.3792 139.519 72.3665 140.503 72.3539C141.092 72.3641 141.585 72.3133 142.129 72.1152C143.367 71.6328 144.749 71.3306 146.319 71.5356C147.153 71.6389 147.942 71.4747 148.636 71.1903C149.18 70.9626 149.726 70.7053 150.317 70.6266C151.895 70.3575 153.521 70.2077 155.095 70.146C154.207 70.3085 153.222 70.41 152.332 70.6614ZM180.466 61.7222C176.951 63.0842 173.242 64.2946 169.437 65.3847C167.065 66.0551 164.596 66.6645 162.128 67.2443C159.215 67.9053 156.206 68.4757 153.245 69.0766C148.657 70.0051 144.018 70.9327 139.238 71.5614C136.774 71.9041 134.119 71.8878 131.597 72.7038C128.1 73.0583 124.603 73.4128 121.057 73.7665C119.333 73.9442 117.656 74.2412 115.934 74.3004C113.425 74.3756 111.012 74.6006 108.644 75.0636C108.447 75.0898 108.249 75.116 108.003 75.1414C108.441 75.3861 108.931 75.4835 109.522 75.4344C110.753 75.3371 111.983 75.2695 113.214 75.1722C114.002 75.0969 114.64 75.1672 115.172 75.6803C114.63 75.7598 114.185 75.8707 113.693 75.8919C109.904 76.0931 106.114 76.2943 102.325 76.4956C101.784 76.5159 101.098 76.3855 100.354 76.7579C101.09 76.8299 101.482 76.896 101.875 76.9028C105.614 76.8192 109.303 76.7348 113.041 76.6216C113.681 76.603 114.322 76.4659 115.012 76.4185C116.095 76.3187 117.131 76.1291 118.212 76.1774C120.668 76.2792 123.033 75.994 125.348 75.7969C128.105 75.5778 130.912 75.3299 133.576 74.8128C135.105 74.5132 135.448 74.5785 137.362 74.7894C136.173 75.332 134.746 75.3962 133.415 75.5807C132.183 75.7372 131.001 75.865 129.769 76.0215C126.763 76.3846 123.806 76.778 120.752 77.0809C118.339 77.3356 115.877 77.5005 113.416 77.6951C113.219 77.7213 113.07 77.8077 112.921 77.8644C113.705 78.0261 114.489 78.1582 115.223 78.3784C115.565 78.4732 115.955 78.6579 115.605 79.0075C114.916 79.0548 114.178 79.1014 113.488 79.1783C111.471 79.262 109.502 79.3762 106.894 79.4793C107.873 79.763 108.264 79.8587 108.754 79.9857C108.652 80.1618 108.551 80.3379 108.45 80.4843C106.684 80.2463 105.059 80.3664 103.574 80.9632C103.326 81.0775 102.981 81.1012 102.636 81.1545C103.422 81.2274 104.256 81.3307 105.042 81.3443C109.369 81.3302 113.606 80.8699 117.888 80.6178C118.33 80.5959 119.021 80.4596 119.172 80.2548C119.725 79.5826 120.609 79.6275 121.491 79.7909C122.716 80.0196 123.895 80.1289 125.175 80.0028C126.061 79.9292 126.994 80.0046 127.975 80.1698C126.151 80.405 124.328 80.6699 122.504 80.9052C122.208 80.9593 121.815 80.9821 121.521 80.9178C120.688 80.7552 119.898 80.949 119.11 81.0243C116.204 81.3001 113.249 81.5751 110.295 81.7908C107.686 81.9828 105.029 82.0851 102.372 82.1873C100.158 82.2676 97.9428 82.4368 95.685 82.2199C94.7526 82.1149 93.7168 82.3045 92.7327 82.3467C92.0932 82.3653 91.4025 82.5016 90.7651 82.4016C89.2941 82.1687 87.8175 82.2618 86.3429 82.2363C84.6718 82.2074 83.0006 82.1785 81.3801 82.0615C79.8088 81.9455 78.2365 81.8887 76.6605 82.0393C76.2667 82.0621 75.7742 82.1129 75.4317 82.018C74.2573 81.7013 72.9777 81.7681 71.751 81.6283C70.9656 81.5555 70.1285 81.6299 69.4958 81.2633C70.872 81.2871 72.2493 81.2516 73.5749 81.3635C78.5832 81.7464 83.5988 81.7146 88.6118 81.8309C89.9389 81.8538 91.2184 81.787 92.5471 81.7211C92.8425 81.6966 93.1395 81.5831 93.5343 81.501C93.5395 81.2047 93.5442 80.938 93.5494 80.6417C91.9264 80.6729 90.3525 80.705 88.7869 80.263C88.1511 80.0741 87.1168 80.1748 86.3764 80.3399C85.5868 80.5041 84.9478 80.493 84.2137 80.3025C83.6751 80.1746 83.1856 80.0476 82.5006 79.8579C84.5744 79.3602 86.6305 79.87 88.5547 79.4883C88.8052 79.2259 89.0556 78.9635 89.407 78.5546C86.8516 78.4808 84.5911 78.412 82.2815 78.3425C79.3826 78.2331 76.5333 78.0949 73.6349 77.9559C73.4875 77.9533 73.2919 77.8907 73.1445 77.8881C72.0155 77.7797 70.8374 77.6704 69.708 77.5916C69.6097 77.5899 69.5098 77.6771 69.3116 77.7626C69.7519 77.8888 70.1436 77.9844 70.7794 78.1733C70.2848 78.3426 70.0364 78.4865 69.7415 78.4814C68.8065 78.5245 67.823 78.5371 66.8389 78.5794C66.9346 78.7292 67.2765 78.8537 66.8797 79.0544C66.0932 79.0408 65.2571 79.0559 64.4717 78.9831C63.392 78.8755 62.2625 78.7967 61.4876 78.1312C60.9552 77.6478 60.0229 77.5428 59.0854 77.734C58.6932 77.668 58.3972 77.7221 58.1484 77.8957C57.216 77.7906 56.234 77.7144 55.3017 77.6093L54.7788 76.5925C54.3328 76.7923 53.9364 76.9633 53.4407 77.1918C52.0268 76.5153 50.5114 76.0149 48.743 75.925C48.3498 75.9182 47.9587 75.7929 47.6172 75.6388C46.5918 75.2358 45.4629 75.1273 43.9867 75.1907C43.9826 75.4278 44.768 75.5006 44.2702 75.8477C43.3373 75.7723 42.3553 75.696 41.8748 75.0653C41.7728 75.271 41.4758 75.3844 41.1825 75.2904C40.3029 74.9788 39.2744 74.7536 38.6443 74.2388C38.3991 74.2049 38.203 74.1719 37.9577 74.138C37.2722 73.978 36.5867 73.8179 35.9509 73.6291C35.0703 73.3767 34.7153 73.993 33.978 73.9803C33.7322 73.976 33.4384 73.9117 33.2899 73.9684C32.894 74.1097 32.5955 74.3121 32.2483 74.4839C31.9068 74.3298 31.4665 74.2036 31.3227 73.9937C30.9394 73.4239 30.256 73.1453 29.4753 72.8058C28.0117 72.158 26.5492 71.451 25.9792 70.3148C25.9316 70.2251 25.5881 70.1895 25.3433 70.126C25.3386 70.3927 25.335 70.6001 25.3303 70.8668C24.9873 70.8016 24.742 70.7677 24.547 70.6754C21.2757 69.374 18.0547 68.0141 15.1327 66.4223C14.2077 65.9024 13.3815 65.3547 12.5558 64.7772C11.5848 64.0787 11.6904 63.6656 12.9799 63.0358C13.0792 62.9782 13.2758 62.9816 13.5718 62.9274C14.1078 63.2035 15.1896 63.1925 15.3763 63.7589C15.564 64.266 16.1994 64.4845 16.8347 64.703C17.47 64.9214 18.1545 65.1408 18.7898 65.3592C19.5229 65.609 20.2069 65.858 20.9394 66.1374C21.5256 66.355 22.1615 66.5438 22.7978 66.703C23.532 66.8935 24.2672 67.0248 25.0531 67.0681C25.5932 67.107 26.1302 67.3238 26.6683 67.4813C27.1086 67.6075 27.5954 67.8827 27.9891 67.8598C29.6138 67.7397 30.8321 68.3536 32.2026 68.7033C33.4754 69.0217 34.8971 69.2538 35.6689 70.097C35.7652 70.2173 36.0585 70.3112 36.2546 70.3443C38.3153 70.5874 39.8255 71.3841 41.3853 72.1521C42.4196 72.0514 43.4047 71.9499 44.3412 71.8179C44.7846 71.7662 44.9294 71.9169 45.0738 72.0973C45.0225 72.215 44.9211 72.391 44.9697 72.4215C46.0453 72.7662 47.1701 73.1117 48.2953 73.4275C49.7145 73.8077 51.1326 74.2472 52.6527 74.4809C54.9565 74.8764 57.2573 75.4498 59.7159 75.433C58.9347 75.1231 58.1535 74.8132 57.3718 74.5329C57.378 74.1773 57.3843 73.8217 57.3906 73.4662C56.4598 73.2722 55.5808 72.931 54.7442 72.9758C53.711 73.0172 53.0756 72.7988 52.2448 72.5176C51.5608 72.2687 50.6269 72.2526 49.8431 72.0908C48.961 71.9274 48.1296 71.6759 47.2971 71.4836C46.073 71.1957 46.0238 71.1949 45.0507 70.6149C46.3276 70.6962 47.4581 70.7158 48.5865 70.8538C52.0204 71.2985 55.5092 71.4181 59.0021 71.3007C65.053 71.1089 71.1045 70.8874 77.1559 70.666C82.3221 70.4589 87.4334 70.5769 92.5918 70.8143C96.227 70.9957 99.86 71.2956 103.495 71.477C114.056 72.0449 124.39 71.5715 134.501 69.7307C142.837 68.2446 151.172 66.7881 159.506 65.3316C162.515 64.7909 165.572 64.3102 168.532 63.7389C173.466 62.7868 178.448 61.8355 182.902 60.1934C183.248 60.0808 183.691 60.0588 184.086 60.0064C182.993 60.6395 181.802 61.2414 180.466 61.7222ZM119.064 75.2437C118.914 75.3893 118.616 75.5323 118.37 75.5874C117.926 75.6686 117.434 75.6897 116.794 75.7379C116.854 75.0869 117.252 74.8271 117.99 74.7805C118.434 74.7289 119.214 75.0981 119.064 75.2437ZM123.248 74.9603C122.211 75.2388 121.619 75.3471 120.345 75.088C121.528 74.901 122.121 74.763 123.248 74.9603ZM111.544 80.686C111.004 80.6174 110.415 80.5776 109.875 80.509C110.467 80.4006 111.059 80.2923 111.544 80.686ZM112.627 80.5862C112.283 80.6099 111.987 80.664 111.642 80.6877C111.939 80.6039 112.186 80.4897 112.627 80.5862ZM72.3967 78.468C73.4352 78.1303 74.0689 78.4376 74.6033 78.8026C73.9173 78.6721 73.077 78.9244 72.3967 78.468ZM77.1122 78.7274C76.0298 78.7679 75.3406 78.8153 74.652 78.833C75.2951 78.607 75.9399 78.2921 77.1122 78.7274ZM78.6364 78.7241C80.4106 78.488 81.9307 78.7218 83.8476 78.7549C82.019 79.2864 80.7411 79.2643 78.6364 78.7241ZM87.088 79.0184C86.2482 79.241 85.6579 79.2604 84.9739 79.0115C85.5188 78.7838 86.1588 78.7356 87.088 79.0184ZM45.3697 72.0431C45.5663 72.0465 45.8121 72.0508 45.9559 72.2607L45.3697 72.0431ZM53.8521 73.3754C54.8284 73.7776 55.3168 73.9638 56.0002 74.2424C54.4263 74.2745 54.4263 74.2745 53.8521 73.3754ZM175.491 59.4725C175.244 59.4979 174.998 59.5529 174.556 59.5156C174.556 59.5156 174.556 59.5156 174.756 59.3412C175.002 59.3158 175.247 59.3497 175.491 59.4725ZM170.618 59.7735C169.779 59.9369 168.939 60.1595 168.148 60.4126C167.061 60.7198 167.061 60.7495 165.29 60.8078C167.415 60.1628 169.294 59.5432 171.221 59.0133C171.814 58.8457 172.552 58.8585 173.29 58.812C172.497 59.1836 171.654 59.5543 170.618 59.7735ZM181.773 57.2988C181.674 57.3563 181.575 57.3843 181.33 57.3504C181.429 57.3225 181.528 57.2649 181.773 57.2988ZM187.067 55.434C186.225 55.7752 185.681 55.9732 185.186 56.1425C185.295 55.5516 185.839 55.3832 187.067 55.434ZM199.616 49.1895C199.52 49.0989 199.472 49.0091 199.425 48.8897C199.621 48.9524 199.766 49.0438 199.616 49.1895ZM205.919 43.1036C206.157 43.5227 205.905 43.9036 205.506 44.2228C205.306 44.3972 205.107 44.5419 204.907 44.6867C204.459 45.0346 203.815 45.3199 203.513 45.7C203.009 46.4026 202.169 46.6549 200.988 46.6938C200.84 46.6912 200.74 46.808 200.591 46.8944C200.685 47.1627 200.778 47.4311 200.919 47.7892C200.327 47.8976 199.736 47.9763 199.242 48.0863C198.7 48.1955 198.744 48.463 199.327 48.8584C198.435 49.2876 197.592 49.688 196.699 50.1171C196.6 50.1451 196.646 50.3237 196.694 50.3838C196.743 50.4439 196.939 50.477 197.086 50.4795C197.331 50.5134 197.632 50.1925 197.92 50.5828C196.382 51.3565 195.281 52.4935 192.722 52.6271C192.973 52.335 193.026 52.0692 193.323 51.9557C193.671 51.7839 194.213 51.7044 194.609 51.5334C195.104 51.3344 194.911 51.1532 194.422 50.9966C193.629 51.3386 192.837 51.6806 191.946 52.0209C191.939 52.3764 191.934 52.7024 191.829 53.0562C191.777 53.2332 191.48 53.3466 191.28 53.4914C190.635 53.8359 189.989 54.21 189.296 54.5241C188.651 54.839 187.909 55.0633 187.028 54.8702C186.391 54.7406 185.945 54.9404 185.45 55.1393C183.323 55.8732 181.292 56.6976 179.116 57.401C177.386 57.9639 175.464 58.1975 173.34 58.7832C173.349 58.2202 174.187 58.1161 174.781 57.8893C175.574 57.5473 176.463 57.2959 177.305 56.9844C178.939 56.3309 180.428 55.5267 182.4 55.2052C182.646 55.1798 182.894 55.0951 183.043 55.0088C184.234 54.3477 185.33 53.5663 187.054 53.359C187.202 53.3319 187.304 53.1262 187.405 53.0094C187.555 52.8638 187.706 52.6589 187.954 52.5447C189.343 51.8573 190.683 51.1098 192.363 50.6646C192.906 50.5258 193.401 50.3269 193.799 50.0966C195.289 49.2332 196.779 48.3994 198.172 47.475C198.918 46.9544 199.518 46.3719 200.703 46.1257C200.9 46.0698 201.149 45.9259 201.2 45.8082C201.413 44.8931 202.702 44.2929 203.159 43.4412C203.363 43.0298 203.666 42.5904 204.407 42.3957C205.679 42.7734 205.776 42.8047 205.919 43.1036ZM189.955 50.5637C190.899 50.0465 191.445 49.7299 192.041 49.4142C191.834 50.0034 191.287 50.3496 189.955 50.5637ZM191.588 36.0683C193.393 36.8701 195.097 37.7888 196.802 38.6778C197.923 39.2604 198.993 39.9013 200.113 40.5431C199.792 41.9899 198.544 43.0947 197.246 44.1689C196.349 44.8944 195.354 45.5293 194.359 46.2234C193.911 46.5121 193.463 46.8008 193.504 47.2757C193.704 47.1013 193.952 46.9871 194.34 47.2605C194.19 47.4061 194.04 47.5814 193.841 47.6965C192.099 48.9113 190.065 49.9135 188.032 50.9158C186.891 51.4889 185.799 52.0628 184.658 52.6359C184.062 52.9516 184.846 53.1134 184.841 53.4097C183.801 53.8363 182.712 54.2621 181.524 54.7158C180.494 54.5498 179.704 54.7436 179.251 55.3582C179.15 55.475 179.098 55.652 178.95 55.7087C176.178 56.7574 173.357 57.8054 170.295 58.5527C169.061 58.8574 167.779 59.0428 166.834 59.6489C166.437 59.8791 165.845 59.9874 165.302 60.0966C162.54 60.5824 159.778 61.0978 157.111 61.7631C156.518 61.9306 155.829 61.978 155.237 62.0864C152.87 62.49 150.504 62.8048 148.185 63.2983C143.891 64.2022 139.647 65.1069 135.163 65.6518C135.064 65.6798 134.964 65.767 134.815 65.8829L135.195 66.6601C134.008 67.0546 132.878 67.0054 131.75 66.8377C131.357 66.8013 130.819 66.6142 130.572 66.6988C129.532 67.1254 128.402 67.1059 127.27 67.1456C126.287 67.1582 125.348 67.4088 124.362 67.5399C124.263 67.5678 124.212 67.6855 124.161 67.7736C124.504 67.8684 124.895 67.9937 125.385 68.1208C124.493 68.4907 123.458 68.6506 122.774 68.4017C121.894 68.0901 121.203 68.2263 120.417 68.2423C116.776 68.3573 113.226 68.9183 109.587 68.9443C106.243 69.0051 102.949 68.9778 99.6587 68.7727C95.4347 68.5218 91.2108 68.271 86.9863 68.0498C85.758 67.9989 84.5266 68.1258 83.2973 68.1342C82.7984 68.5405 82.1134 68.3508 81.475 68.3102C80.0993 68.2567 78.7287 67.907 77.2997 68.0898C76.2215 67.8933 75.1412 67.8154 74.007 68.0032C71.6059 67.5468 69.1932 67.7422 66.778 68.0858C64.7622 68.0806 62.6984 68.0152 60.6821 68.0397C59.4528 68.048 58.1711 68.2334 56.9429 68.1825C53.3067 68.0603 49.661 68.4716 46.028 68.1717C44.8002 68.0912 43.5714 68.0699 42.3457 67.8709C41.61 67.7692 40.8754 67.6083 40.1386 67.5659C37.2391 67.4862 34.6461 66.7597 32.053 66.0331C30.0963 65.4658 28.3384 64.7833 26.7299 63.9848C24.2446 62.7266 22.3056 61.1518 20.9131 59.2604C20.9137 59.2308 20.865 59.2003 20.8656 59.1707C20.7212 58.9903 20.6255 58.8405 20.4812 58.6601C20.1931 58.2698 19.9541 57.8804 20.1094 57.4385C20.1617 57.2615 20.0184 57.022 19.8239 56.9C19.4349 56.6562 19.4401 56.3599 19.4453 56.0635C19.4719 54.5524 19.6947 53.0742 20.1631 51.6003C20.7885 49.5956 21.4143 47.5612 23.0687 45.7521C23.1189 45.6937 23.0227 45.5735 23.0248 45.455C22.732 45.3314 22.39 45.2069 22.0977 45.0536C22.3471 44.8504 22.5474 44.6464 22.7471 44.472C23.0964 44.1817 23.396 43.9201 23.6962 43.6289C23.8959 43.4545 24.0962 43.2505 24.2959 43.0761C24.4957 42.9017 24.6959 42.6977 24.8957 42.5233C24.9453 42.4945 24.9955 42.4361 24.9961 42.4065C25.2455 42.2033 25.4949 42.0001 25.7443 41.797C25.9937 41.5938 26.2426 41.4203 26.5407 41.2476C27.2873 40.727 27.9854 40.1759 28.8299 39.6866C29.575 39.2549 30.4184 38.8249 31.2121 38.4236C31.5599 38.2221 31.9076 38.0207 32.2548 37.8488C32.9497 37.4755 33.596 37.0717 34.1445 36.6366C34.4436 36.4046 34.8891 36.2345 35.3341 36.094C37.5579 35.4507 39.1532 34.2038 41.6197 33.7425C43.009 33.0256 44.688 32.61 46.3195 32.1046C49.1378 31.2049 52.0974 30.6633 55.2018 30.2723C56.976 30.0362 58.7983 29.8602 60.5714 29.6834C61.5566 29.5819 62.4925 29.4795 63.4771 29.4076C68.155 29.0142 72.8333 28.5912 77.5085 28.346C83.4135 28.0628 89.3165 27.8981 95.22 27.7037C95.7611 27.6834 96.3515 27.664 96.8927 27.6437C100.878 27.4755 104.816 27.2471 108.802 27.0493C110.032 26.9816 111.262 26.914 112.542 26.8472C116.773 26.6832 121.003 26.5785 125.185 26.4137C127.252 26.3308 129.318 26.248 131.385 26.1355C134.191 25.9765 136.994 25.9064 139.8 25.7178C141.179 25.6231 142.557 25.558 143.983 25.5234C145.459 25.4896 146.934 25.4855 148.408 25.511C148.703 25.5161 148.998 25.5212 149.244 25.5254C152.291 25.6077 155.384 25.839 158.427 26.1288C159.311 26.2329 160.243 26.3084 161.126 26.4422C164.707 26.919 168.237 27.4839 171.563 28.4899C173.128 28.9616 174.442 29.7253 176.208 29.9336C176.502 29.9684 176.745 30.1801 176.988 30.3028C179.426 31.4713 182.064 32.4358 184.752 33.3714C187.143 34.3613 189.44 35.142 191.588 36.0683ZM72.7233 68.3071C73.1667 68.2555 73.561 68.203 74.0044 68.1514C73.6546 68.4714 73.2127 68.4341 72.7233 68.3071ZM77.2479 68.2371C77.0503 68.293 76.8029 68.3776 76.6053 68.4335C76.6053 68.4335 76.6053 68.4335 76.5096 68.2836C76.7559 68.2582 77.0022 68.2328 77.2479 68.2371ZM201.476 30.1334C201.471 30.4297 201.563 30.8166 201.855 30.9698C202.586 31.3381 202.775 31.786 202.765 32.3194C202.756 32.8231 202.797 33.298 202.297 33.7933C201.905 33.7272 201.561 33.7213 201.316 33.6281C199.85 33.1285 198.384 32.6586 197.017 32.1014C195.893 31.6671 194.87 31.1455 193.747 30.6815C192.918 30.3114 192.088 30.0007 191.159 29.7179C190.963 29.6552 190.718 29.5917 190.523 29.529C190.376 29.4969 190.229 29.435 190.083 29.3732C190.034 29.3428 189.937 29.3114 189.888 29.2809C189.157 28.883 188.425 28.5739 187.644 28.264C186.13 27.6747 184.516 27.2318 182.802 26.8169C179.082 25.8634 175.158 25.3213 171.233 24.8977C164.853 24.1947 158.474 23.462 151.94 23.1712C148.649 23.0253 145.404 22.9989 142.159 23.0317C140.88 23.0392 139.552 23.0756 138.272 23.1424C133.057 23.3486 127.89 23.5853 122.674 23.8212C121.74 23.8643 120.805 23.9075 119.87 23.9506C116.573 24.0714 113.229 24.1025 109.933 24.2234C106.39 24.3696 102.846 24.6047 99.2545 24.7501C96.6469 24.8533 94.0392 24.9564 91.4315 25.0595C88.4798 25.1567 85.5772 25.2547 82.6249 25.3815C79.2303 25.5007 75.7891 25.4708 72.4416 25.7094C68.6511 25.9699 64.8627 26.1119 61.0697 26.5205C59.5915 26.7025 58.0651 26.8243 56.5388 26.9461C53.3878 27.188 50.1883 27.3995 46.9882 27.6406C43.7875 27.9113 40.5858 28.2413 37.7173 29.1994C37.4208 29.2832 37.1238 29.3966 37.4135 29.698C38.3991 29.5669 39.4831 29.4374 40.5179 29.3071C41.5035 29.176 42.4437 28.8365 44.0636 28.9831C42.382 29.5468 40.6664 29.2504 39.5709 30.0317C40.1576 30.2197 41.0533 29.6128 41.4345 30.3011C40.2873 31.2297 38.5576 31.7334 36.9738 32.3284C35.7858 32.7821 34.5005 33.1749 33.5075 33.7209C32.5642 34.2381 31.622 34.696 30.4858 35.0024C29.2507 35.3368 28.3074 35.854 27.2663 36.3399C26.87 36.5109 26.5217 36.742 26.1259 36.8833C25.0864 37.2803 24.1933 37.7391 23.3478 38.2877C23.1983 38.4036 22.9996 38.5188 22.85 38.6347C22.7501 38.7219 22.6508 38.7795 22.5509 38.8667C22.1525 39.1562 21.7044 39.4745 21.2568 39.7632C21.1077 39.8495 20.9582 39.9655 20.8578 40.0823C20.8076 40.1407 20.7579 40.1695 20.6591 40.1974C20.5101 40.2838 20.4107 40.3413 20.2136 40.3676C19.5725 40.475 19.0277 40.7027 18.5811 40.9321C17.7869 41.363 17.138 41.915 16.3437 42.3458C16.0462 42.4889 15.7466 42.7505 16.0859 43.0231C16.4739 43.3262 16.3218 43.5903 16.1205 43.8536C15.7675 44.3514 15.4632 44.8797 14.9639 45.3156C13.9134 46.3349 13.1568 47.4185 12.7432 48.5673C12.4839 49.3334 12.372 50.1022 11.9134 51.0131C12.3051 51.1088 12.7459 51.2053 13.1861 51.3315C13.1595 52.8427 13.1826 54.3251 13.1559 55.8363C13.1554 55.8659 12.9091 55.8913 12.6623 55.9463C12.5734 55.4112 12.4354 54.8753 12.4448 54.342C12.4542 53.8086 12.5137 53.2168 11.8878 52.465C11.571 53.7044 11.3085 54.6484 11.8806 55.666C12.119 56.0851 12.357 56.5338 11.7117 56.8783C10.1404 56.7622 9.26611 56.1543 8.63967 55.4321C7.82132 54.4399 7.2001 53.4214 6.48057 52.4012C6.73626 51.8424 7.04161 51.2549 7.24814 50.6953C7.40239 50.3126 7.4097 49.8978 7.56395 49.5152C7.71819 49.1325 7.87244 48.7498 8.12499 48.3689C10.2432 45.3526 13.1431 42.6165 15.9938 39.8796C16.0435 39.8509 16.044 39.8213 16.0937 39.7925C16.6935 39.2397 17.6352 38.8114 17.7471 38.0426C17.7512 37.8056 18.2961 37.5779 18.6433 37.406C19.3863 37.0928 20.1288 36.8093 20.8719 36.4961C20.8766 36.2294 20.8807 35.9924 20.8854 35.7257C21.8256 35.3863 22.7166 35.046 23.6081 34.6761C24.0045 34.5051 24.4013 34.3044 24.6513 34.0716C24.8019 33.8964 24.7569 33.6585 24.7606 33.4511C25.3028 33.3716 25.6971 33.3191 25.993 33.2649C26.496 32.6215 26.9488 32.0365 27.4503 31.4821C28.0406 31.4626 28.5327 31.4415 29.123 31.4221C29.6349 30.275 31.2663 29.7696 32.8496 29.2042C34.6803 28.5541 35.5247 28.0648 36.8727 26.9025C37.1227 26.6697 37.5697 26.4107 37.964 26.3582C39.7863 26.1822 40.7379 25.191 42.3176 24.8329C43.4638 23.9635 45.0957 23.4286 46.4359 22.7108C47.2301 22.2799 48.1217 21.91 49.0613 21.6002C49.2595 21.5147 49.4571 21.4588 49.7039 21.4038C51.2365 20.9264 52.8659 20.5396 54.4941 20.2121C55.7773 19.9379 56.866 19.5417 57.7617 18.9348C58.2589 18.6173 58.9042 18.2728 59.5447 18.1949C61.1218 17.9851 62.4583 17.4747 63.7932 17.0532C65.8205 16.4065 67.8482 15.7301 70.2122 15.5042C70.8036 15.4255 71.3976 15.1987 71.942 15.0006C73.3282 14.4614 74.7619 14.012 76.4843 13.9232C77.1238 13.9046 77.8627 13.8285 78.407 13.6304C79.447 13.2038 80.6309 12.9871 81.8147 12.7705C82.5541 12.6647 83.2443 12.5581 83.9842 12.4226C86.5981 11.9639 89.2591 11.6246 91.9672 11.4047C95.4638 11.0798 99.0555 10.9344 102.551 10.6984C103.141 10.6494 103.732 10.6299 104.273 10.58C105.406 10.5107 106.587 10.4421 107.719 10.3728C108.801 10.3322 109.883 10.3213 110.965 10.3104C113.67 10.2682 116.424 10.2269 119.178 10.2152C120.603 10.2102 121.979 10.2636 123.405 10.2883C125.715 10.3282 127.977 10.2784 130.287 10.348C130.828 10.3573 131.319 10.3955 131.859 10.4048C134.757 10.6031 137.552 11.0071 140.447 11.3535C142.066 11.5594 143.684 11.7948 145.303 12.0007C147.167 12.2404 149.031 12.4801 150.946 12.6614C151.682 12.7334 152.418 12.8054 153.105 12.8765C153.744 12.9172 154.332 12.9867 154.971 13.0274C155.266 13.0324 155.56 13.0672 155.854 13.1019C158.065 13.1994 160.325 13.3274 162.378 14.015C163.404 14.3587 164.482 14.5552 165.713 14.4579C166.403 14.3809 167.186 14.5723 167.872 14.7324C170.321 15.2193 172.771 15.7359 175.22 16.2525C176.052 16.4447 176.935 16.6082 177.767 16.8004C179.579 17.1874 181.34 17.6921 183.053 18.1663C183.64 18.3246 184.178 18.4821 184.765 18.6405C185.01 18.704 185.304 18.798 185.548 18.8615C187.163 19.3044 188.728 19.776 190.343 20.2189C191.713 20.5983 193.084 20.9184 193.954 21.7633C194.099 21.9141 194.39 22.097 194.684 22.1613C195.762 22.3874 196.145 22.9572 196.578 23.4982C197.107 24.1891 197.685 24.8808 198.213 25.5716C198.55 26.022 198.936 26.4437 199.272 26.8645C199.513 27.165 200.149 27.3539 200.39 27.6248C200.63 27.9254 200.525 28.3385 200.815 28.6103C201.299 29.0632 201.437 29.5695 201.476 30.1334Z" fill="#FF6680"/>
</svg>
